<svg xmlns="http://www.w3.org/2000/svg" width="248.07973" height="220.34604" viewBox="0 0 248.07973 220.34604">
  <g id="a60fef2f-29e3-41f8-94d9-ef1229668a24" data-name="katman 2">
    <g id="a5db67e5-72c7-450a-9ac6-78f12033e8bf" data-name="katman 1">
      <path d="M182.87281.02593c-1.45307-.062-3.00448-.0009-4.51933.05909-21.962.8685-41.44421,21.05047-55.71084,35.16756C108.33655,21.13526,88.85441.95352,66.8928.085c-1.51667-.06022-3.064-.04015-4.52408-.05909-54.47178-.69485-80.091,65.586-48.83834,105.25282,15.74969,17.30425,23.82175,25.69949,39.8698,42.36413,28.22833,29.293,42.61155,43.414,69.24223,72.70317,26.616-29.2892,40.99135-43.41036,69.20388-72.70317,16.04761-16.66464,24.11967-25.06013,39.86957-42.365C272.47426,64.356,229.86589,2.00741,182.87281.02593Z"/>
    </g>
  </g>
</svg>
